<svg width="134" height="41" viewBox="0 0 134 41" fill="none" xmlns="http://www.w3.org/2000/svg">
<g clip-path="url(#clip0)">
<path d="M122.168 40.6923C104.443 40.6923 86.719 40.6923 68.9945 40.6923C68.7804 40.6683 68.5663 40.6323 68.3521 40.6323C59.1806 40.6203 50.0091 40.6083 40.8376 40.5963C27.2171 40.5843 13.6086 40.5843 0 40.5723C0 30.8494 0 21.1265 0 11.4035C3.65195 7.76645 7.3039 4.12936 10.944 0.468263C11.277 0.132162 11.6101 0.00012207 12.0859 0.00012207C35.4132 0.0121257 58.7524 0.0121257 82.0797 0.0121257C99.0904 0.0121257 116.101 0.0121257 133.112 0.0121257C133.112 4.36943 133.112 8.73874 133.112 13.0961C133.088 13.3721 133.052 13.6482 133.052 13.9243C133.029 18.9418 133.005 23.9473 133.005 28.9648C133.005 29.3729 132.886 29.661 132.6 29.9611C129.103 33.5262 125.641 37.1153 122.168 40.6923ZM131.625 1.44055C92.0244 1.44055 52.5072 1.44055 12.9543 1.44055C12.9543 10.3712 12.9543 19.2659 12.9543 28.1606C52.531 28.1606 92.072 28.1606 131.625 28.1606C131.625 19.2419 131.625 10.3712 131.625 1.44055ZM1.43937 39.2279C1.76055 39.2279 1.95088 39.2279 2.1531 39.2279C13.5729 39.2279 24.9927 39.2279 36.4006 39.2279C49.9377 39.2279 63.4749 39.2279 77.0121 39.2279C91.5605 39.2279 106.109 39.2159 120.657 39.2399C121.24 39.2399 121.656 39.0598 122.061 38.6517C124.809 35.8549 127.568 33.07 130.316 30.2732C130.435 30.1532 130.53 30.0091 130.697 29.7931C130.269 29.7931 129.948 29.7931 129.638 29.7931C112.211 29.7931 94.7961 29.7931 77.369 29.8051C55.5644 29.8051 33.7597 29.8051 11.9551 29.8171C11.4793 29.8171 11.3365 29.685 11.3484 29.2049C11.3722 26.5401 11.3603 23.8873 11.3603 21.2225C11.3603 15.0646 11.3603 8.90679 11.3484 2.74895C11.3484 2.56889 11.3127 2.38884 11.2889 2.11276C11.0629 2.31682 10.9321 2.42485 10.8012 2.55689C7.82731 5.52178 4.85341 8.48667 1.86761 11.4396C1.54643 11.7637 1.41558 12.0877 1.41558 12.5439C1.42747 20.0461 1.42747 27.5484 1.42747 35.0506C1.43937 36.407 1.43937 37.7875 1.43937 39.2279Z" fill="white"/>
<path d="M30.1435 12.6282C29.2989 12.6282 28.5019 12.6522 27.7168 12.6162C27.5265 12.6042 27.3005 12.4362 27.1696 12.2681C25.6827 10.2875 23.137 9.85538 21.091 11.2478C19.1282 12.5802 18.5572 15.365 19.7943 17.4897C20.9839 19.5183 23.589 20.2625 25.6589 19.1582C26.5629 18.678 27.1696 17.9218 27.6217 16.9015C26.099 16.9015 24.6834 16.9015 23.2084 16.9015C23.2084 16.1093 23.2084 15.365 23.2084 14.5848C25.6351 14.5848 28.0499 14.5848 30.4528 14.5848C31.2736 17.2016 28.7161 21.0307 25.5399 21.967C21.7928 23.0593 17.7959 20.7907 16.7729 17.0095C15.7023 13.0603 18.01 9.07515 21.9475 8.12686C26.1466 7.10656 29.3703 9.87939 30.1435 12.6282Z" fill="white"/>
<path d="M53.0186 21.9071C53.0186 17.3457 53.0186 12.7723 53.0186 8.06689C54.8148 8.16292 56.5991 8.0789 58.3121 8.403C61.738 9.01518 63.6413 11.884 63.3558 15.6292C63.0703 19.3143 61.0362 21.5229 57.3723 21.883C55.9568 22.0271 54.5055 21.9071 53.0186 21.9071ZM55.6475 19.4703C57.3248 19.7824 59.0972 19.0622 59.9537 17.6578C60.9886 15.9653 60.9886 14.2007 59.9775 12.5082C59.1091 11.0678 57.3367 10.3596 55.6475 10.6597C55.6475 13.5886 55.6475 16.5294 55.6475 19.4703Z" fill="white"/>
<path d="M40.6235 18.5221C41.1826 19.0142 41.7179 19.4824 42.2888 19.9865C41.4205 21.1028 40.3142 21.727 38.9938 22.0391C36.0793 22.7233 33.3196 21.3429 32.3203 18.7261C31.559 16.7215 32.1062 14.3808 33.6645 12.9524C35.3894 11.3679 37.8042 11.0198 39.8502 12.0401C41.8249 13.0364 43.0026 15.125 42.8242 17.2857C42.7885 17.7178 42.5862 17.7538 42.2532 17.7418C39.993 17.7298 37.7328 17.7418 35.4846 17.7418C35.2348 17.7418 34.9849 17.7418 34.7113 17.7418C35.1991 19.8305 38.1254 20.9108 40.6235 18.5221ZM40.0882 15.6412C39.6599 14.3928 38.399 13.5886 37.1737 13.7326C35.9723 13.8647 34.9612 14.6809 34.8303 15.6412C36.5671 15.6412 38.3038 15.6412 40.0882 15.6412Z" fill="white"/>
<path d="M94.0109 11.7638C94.8792 11.7638 95.7 11.7638 96.5922 11.7638C96.5446 13.7204 96.3186 15.545 94.5937 16.8654C95.5216 18.5339 96.4495 20.1904 97.4249 21.9669C96.4138 21.9669 95.4978 21.9789 94.5937 21.9429C94.4629 21.9429 94.3082 21.7028 94.225 21.5348C93.5945 20.3944 92.9878 19.2541 92.3693 18.1137C91.9648 17.3575 91.8934 17.3335 90.9537 17.5496C90.9537 18.978 90.9537 20.4304 90.9537 21.9189C90.0734 21.9189 89.2526 21.9189 88.3723 21.9189C88.3723 17.3575 88.3723 12.7962 88.3723 8.18677C89.205 8.18677 90.0258 8.18677 90.9418 8.18677C90.9418 10.4795 90.9418 12.7601 90.9418 15.0288C92.8451 15.3889 93.88 14.7527 94.0109 11.7638Z" fill="white"/>
<path d="M118.742 11.6077C119.622 11.6077 120.443 11.6077 121.335 11.6077C121.335 12.9761 121.335 14.3085 121.335 15.6409C121.335 16.205 121.323 16.7572 121.335 17.3214C121.371 18.5457 122.287 19.458 123.453 19.446C124.606 19.434 125.51 18.4977 125.51 17.2614C125.522 15.6409 125.51 14.0204 125.51 12.3999C125.51 12.1478 125.51 11.8958 125.51 11.6077C126.391 11.6077 127.223 11.6077 128.139 11.6077C128.139 12.3279 128.139 13.0361 128.139 13.7443C128.139 14.9807 128.151 16.217 128.128 17.4654C128.068 19.9502 126.117 21.9788 123.702 22.0868C121.169 22.1948 118.956 20.4063 118.778 17.8975C118.623 15.8329 118.742 13.7443 118.742 11.6077Z" fill="white"/>
<path d="M85.9338 21.9429C85.0893 21.9429 84.2804 21.9429 83.412 21.9429C83.4001 21.7269 83.3882 21.5468 83.3882 21.3547C83.3882 19.6142 83.4001 17.8737 83.3644 16.1332C83.3406 15.1249 82.6269 14.3206 81.6871 14.1526C80.6998 13.9725 79.7719 14.4287 79.3913 15.3409C79.2604 15.665 79.2128 16.0372 79.2128 16.3853C79.1891 18.0298 79.2009 19.6622 79.2009 21.3067C79.2009 21.4988 79.2009 21.6908 79.2009 21.9309C78.3207 21.9309 77.4999 21.9309 76.572 21.9309C76.572 21.4748 76.572 21.0307 76.572 20.5745C76.572 19.1341 76.572 17.6937 76.572 16.2532C76.572 13.6004 78.6419 11.4758 81.2708 11.4398C83.8402 11.4158 85.9695 13.5044 86.0052 16.1332C86.029 17.9937 86.0171 19.8543 86.0052 21.7149C85.9933 21.7749 85.9695 21.8349 85.9338 21.9429Z" fill="white"/>
<path d="M98.6502 18.8219C99.4234 18.8219 100.101 18.7979 100.768 18.8339C100.922 18.8459 101.113 19.038 101.196 19.194C101.553 19.8662 102.171 20.2023 102.873 19.9382C103.159 19.8302 103.515 19.5061 103.551 19.242C103.599 18.9419 103.432 18.4738 103.194 18.2697C102.909 18.0057 102.457 17.9216 102.064 17.7896C101.446 17.5735 100.791 17.4535 100.208 17.1654C99.1141 16.6372 98.5431 15.713 98.555 14.4766C98.5788 13.2522 99.2093 12.412 100.28 11.8958C102.6 10.7555 105.371 11.8478 106.014 14.1525C106.061 14.3085 106.073 14.4646 106.121 14.7047C105.371 14.7047 104.657 14.7287 103.956 14.6927C103.825 14.6807 103.658 14.4886 103.575 14.3325C103.17 13.6603 102.362 13.4083 101.672 13.7564C101.065 14.0685 100.946 14.7527 101.481 15.1728C101.826 15.4369 102.29 15.5809 102.707 15.737C103.373 15.989 104.098 16.1211 104.705 16.4692C106.703 17.5855 106.751 20.2983 104.848 21.5707C102.659 23.0352 99.5899 22.0509 98.8048 19.6141C98.7453 19.3741 98.7096 19.134 98.6502 18.8219Z" fill="white"/>
<path d="M50.3661 19.6262C50.3661 20.4905 50.3661 21.3187 50.3661 22.147C48.5936 22.399 46.7617 21.2587 46.2502 19.4822C46.0123 18.6539 45.9766 17.7536 45.929 16.8894C45.8814 15.9771 45.9171 15.0648 45.9171 14.0925C45.132 14.0925 44.4064 14.0925 43.4904 14.0925C45.2153 12.28 46.8093 10.5875 48.5104 8.79895C48.5104 9.83126 48.5104 10.7315 48.5104 11.7038C49.3312 11.7038 50.0925 11.7038 50.9014 11.7038C50.9014 12.5081 50.9014 13.2283 50.9014 14.0325C50.152 14.0325 49.3906 14.0325 48.4866 14.0325C48.5579 15.545 48.5342 16.9974 48.7007 18.4378C48.7959 19.2661 49.5453 19.5782 50.3661 19.6262Z" fill="white"/>
<path d="M114.876 21.7988C113.972 21.7988 113.151 21.7988 112.247 21.7988C112.247 20.7185 112.247 19.6742 112.247 18.6179C112.247 17.7416 112.199 16.8534 112.271 15.9771C112.33 15.2089 112.437 14.4166 112.711 13.7084C113.317 12.1479 114.733 11.3317 116.672 11.3197C116.672 12.16 116.672 13.0002 116.672 13.8525C115.221 14.2126 114.9 14.6327 114.888 16.2052C114.876 18.0537 114.876 19.8903 114.876 21.7988Z" fill="white"/>
<path d="M69.6013 11.4638C69.6013 12.3521 69.6013 13.1563 69.6013 13.9726C68.0549 14.4647 67.8051 14.8128 67.7932 16.4693C67.7813 18.2699 67.7932 20.0704 67.7932 21.919C66.9248 21.919 66.0921 21.919 65.1642 21.919C65.1642 21.5348 65.1642 21.1387 65.1642 20.7546C65.1642 19.0501 65.1286 17.3576 65.188 15.6531C65.2832 13.1923 66.8296 11.6319 69.2325 11.4758C69.3396 11.4518 69.4348 11.4638 69.6013 11.4638Z" fill="white"/>
<path d="M74.2167 21.9311C73.3602 21.9311 72.5394 21.9311 71.6711 21.9311C71.6711 18.6061 71.6711 15.2811 71.6711 11.9081C72.5037 11.9081 73.3483 11.9081 74.2167 11.9081C74.2167 15.2451 74.2167 18.5701 74.2167 21.9311Z" fill="white"/>
<path d="M74.5021 9.19501C74.4902 10.0593 73.8003 10.7555 72.9438 10.7555C72.0636 10.7555 71.3498 10.0353 71.3617 9.159C71.3736 8.30675 72.0873 7.59853 72.92 7.59853C73.8003 7.58653 74.5259 8.31875 74.5021 9.19501Z" fill="white"/>
<path d="M110.379 20.6465C110.367 21.5227 109.63 22.231 108.761 22.2069C107.893 22.1829 107.239 21.4867 107.251 20.6105C107.263 19.7222 107.976 19.026 108.857 19.062C109.713 19.086 110.391 19.7942 110.379 20.6465Z" fill="white"/>
<path d="M118.266 31.4619C118.23 31.9301 117.79 32.3142 117.338 32.2662C116.922 32.2181 116.553 31.774 116.577 31.3539C116.601 30.8857 117.029 30.5256 117.505 30.5736C117.957 30.5976 118.302 31.0058 118.266 31.4619Z" fill="white"/>
<path d="M15.607 32.266C15.1787 32.278 14.7743 31.8939 14.7505 31.4617C14.7267 30.9696 15.0955 30.5735 15.5713 30.5614C16.0114 30.5494 16.4159 30.9096 16.4397 31.3657C16.4516 31.8098 16.0471 32.254 15.607 32.266Z" fill="white"/>
<path d="M100.292 31.3657C100.304 31.8218 99.8755 32.266 99.4234 32.254C99.0071 32.254 98.6026 31.8218 98.6026 31.3897C98.6026 30.9336 98.9833 30.5614 99.4353 30.5494C99.8993 30.5494 100.28 30.9215 100.292 31.3657Z" fill="white"/>
<path d="M52.3643 37.4275C52.3762 37.8717 51.9837 38.2798 51.5554 38.3038C51.1034 38.3278 50.6632 37.8957 50.6989 37.4275C50.7346 36.9714 50.9487 36.6233 51.4603 36.6113C51.948 36.5753 52.3524 36.9474 52.3643 37.4275Z" fill="white"/>
<path d="M114.448 30.5494C114.9 30.5614 115.28 30.9336 115.28 31.3777C115.28 31.8338 114.852 32.266 114.412 32.254C113.96 32.242 113.567 31.7978 113.591 31.3417C113.615 30.8855 113.984 30.5494 114.448 30.5494Z" fill="white"/>
<path d="M18.5808 32.254C18.1288 32.254 17.7482 31.8938 17.7244 31.4257C17.7006 30.9576 18.1169 30.5494 18.5927 30.5494C19.0567 30.5494 19.4016 30.9216 19.4016 31.4017C19.4135 31.8578 19.0329 32.254 18.5808 32.254Z" fill="white"/>
<path d="M6.38797 15.4847C6.79242 15.4727 7.23256 15.9049 7.25635 16.325C7.28014 16.7571 6.82811 17.2013 6.37608 17.2013C5.92404 17.2013 5.55528 16.8051 5.56717 16.349C5.56717 15.8809 5.93594 15.4967 6.38797 15.4847Z" fill="white"/>
<path d="M83.6259 31.3897C83.6259 30.9336 84.0066 30.5494 84.4586 30.5494C84.9106 30.5494 85.3032 30.9095 85.3151 31.3657C85.327 31.8218 84.8988 32.278 84.4586 32.266C84.0423 32.254 83.6259 31.8218 83.6259 31.3897Z" fill="white"/>
<path d="M64.3551 31.3897C64.367 31.8099 63.9626 32.242 63.5462 32.266C63.118 32.29 62.666 31.8579 62.6541 31.4137C62.6422 30.9696 63.0109 30.5855 63.463 30.5615C63.9388 30.5255 64.3432 30.9216 64.3551 31.3897Z" fill="white"/>
<path d="M106.264 34.4388C106.252 34.9309 105.919 35.255 105.419 35.243C104.955 35.231 104.586 34.8709 104.586 34.4148C104.586 33.9466 105.015 33.5385 105.478 33.5625C105.919 33.5745 106.275 33.9707 106.264 34.4388Z" fill="white"/>
<path d="M112.271 34.4265C112.259 34.8946 111.89 35.2547 111.426 35.2427C110.986 35.2427 110.581 34.8346 110.581 34.4025C110.581 33.9463 111.033 33.5142 111.474 33.5382C111.902 33.5622 112.282 33.9823 112.271 34.4265Z" fill="white"/>
<path d="M114.459 33.5385C114.876 33.5505 115.28 33.9946 115.268 34.4267C115.256 34.9069 114.852 35.267 114.352 35.243C113.888 35.207 113.555 34.8349 113.579 34.3667C113.615 33.9226 114.031 33.5265 114.459 33.5385Z" fill="white"/>
<path d="M120.407 35.255C119.979 35.255 119.563 34.8468 119.563 34.4147C119.551 33.9586 120.003 33.5264 120.455 33.5385C120.883 33.5505 121.264 33.9706 121.252 34.4267C121.24 34.8949 120.859 35.267 120.407 35.255Z" fill="white"/>
<path d="M6.3642 29.2651C5.91217 29.2531 5.5553 28.893 5.5553 28.4248C5.5553 27.9567 5.95975 27.5486 6.42368 27.5606C6.84002 27.5726 7.24447 27.9927 7.25637 28.4128C7.25637 28.8569 6.82813 29.2651 6.3642 29.2651Z" fill="white"/>
<path d="M97.2821 34.4266C97.2702 34.8947 96.9015 35.2548 96.4376 35.2428C95.9736 35.2308 95.593 34.8587 95.593 34.4146C95.593 33.9584 96.0212 33.5383 96.4732 33.5503C96.9253 33.5623 97.294 33.9704 97.2821 34.4266Z" fill="white"/>
<path d="M21.5905 38.3038C21.1622 38.3158 20.7459 37.9197 20.734 37.4755C20.7221 36.9954 21.1146 36.5873 21.5905 36.5873C22.0306 36.5873 22.4231 36.9954 22.4231 37.4395C22.435 37.8597 22.0068 38.2918 21.5905 38.3038Z" fill="white"/>
<path d="M76.3221 34.4145C76.3221 34.8706 75.9533 35.2547 75.4894 35.2547C75.0612 35.2547 74.6329 34.8466 74.621 34.4265C74.6091 33.9823 75.0612 33.5382 75.5013 33.5382C75.9296 33.5502 76.3102 33.9703 76.3221 34.4145Z" fill="white"/>
<path d="M33.5932 32.2658C33.1412 32.2778 32.7129 31.8577 32.701 31.3896C32.701 30.9694 33.0579 30.5853 33.4862 30.5613C33.9858 30.5253 34.3783 30.8854 34.3902 31.3776C34.4021 31.8337 34.0215 32.2538 33.5932 32.2658Z" fill="white"/>
<path d="M10.4326 34.4026C10.4445 34.8708 10.0995 35.2309 9.62368 35.2549C9.17165 35.2789 8.7553 34.9068 8.74341 34.4627C8.73151 34.0185 9.15975 33.5624 9.58799 33.5624C10.0162 33.5504 10.4207 33.9585 10.4326 34.4026Z" fill="white"/>
<path d="M93.4519 35.2547C92.988 35.2547 92.6311 34.8706 92.6311 34.4025C92.6311 33.9343 93.0118 33.5502 93.4519 33.5382C93.892 33.5382 94.3441 33.9823 94.3203 34.4265C94.2965 34.8586 93.8682 35.2667 93.4519 35.2547Z" fill="white"/>
<path d="M79.3318 34.4265C79.3318 34.8706 78.9392 35.2427 78.4753 35.2427C78.0114 35.2427 77.6426 34.8826 77.6426 34.4145C77.6426 33.9703 78.0233 33.5622 78.4634 33.5382C78.9035 33.5382 79.3318 33.9703 79.3318 34.4265Z" fill="white"/>
<path d="M121.24 31.3657C121.252 31.8218 120.895 32.23 120.455 32.254C120.015 32.278 119.551 31.8338 119.563 31.3897C119.563 30.9336 119.955 30.5494 120.407 30.5494C120.895 30.5494 121.228 30.8855 121.24 31.3657Z" fill="white"/>
<path d="M55.3503 34.4986C55.3146 34.9427 54.8982 35.3029 54.4462 35.2668C53.9942 35.2308 53.6373 34.7987 53.673 34.3666C53.7206 33.9224 54.1369 33.5383 54.5533 33.5503C55.0053 33.5623 55.386 34.0185 55.3503 34.4986Z" fill="white"/>
<path d="M12.5974 30.5737C13.0375 30.5737 13.442 30.9698 13.442 31.4139C13.442 31.87 13.0018 32.2902 12.5498 32.2782C12.1097 32.2662 11.7409 31.858 11.7528 31.4019C11.7647 30.9218 12.1215 30.5617 12.5974 30.5737Z" fill="white"/>
<path d="M25.397 34.4386C25.3851 34.9067 25.0282 35.2668 24.5643 35.2668C24.1242 35.2668 23.7316 34.8707 23.7197 34.4266C23.7078 34.0184 24.1361 33.5623 24.5405 33.5503C25.0044 33.5383 25.397 33.9584 25.397 34.4386Z" fill="white"/>
<path d="M21.5785 33.5503C21.9949 33.5503 22.4112 33.9584 22.435 34.4025C22.4588 34.8107 22.0425 35.2548 21.6142 35.2788C21.1384 35.3028 20.7458 34.9067 20.7458 34.4025C20.7458 33.9464 21.1384 33.5503 21.5785 33.5503Z" fill="white"/>
<path d="M79.3318 31.4257C79.3199 31.8578 78.8917 32.266 78.4753 32.266C78.0352 32.254 77.6426 31.8578 77.6426 31.4137C77.6426 30.9215 78.0352 30.5494 78.5229 30.5614C78.963 30.5734 79.3437 30.9816 79.3318 31.4257Z" fill="white"/>
<path d="M66.5322 30.5737C66.9842 30.5857 67.3649 30.9698 67.353 31.4259C67.3411 31.858 66.9366 32.2782 66.5084 32.2782C66.0564 32.2782 65.64 31.834 65.6519 31.3779C65.6757 30.9218 66.0683 30.5617 66.5322 30.5737Z" fill="white"/>
<path d="M87.4445 36.5873C87.8846 36.5753 88.2891 36.9474 88.3129 37.3916C88.3367 37.8477 87.9322 38.2798 87.4564 38.2918C87.0044 38.3038 86.6475 37.9317 86.6356 37.4516C86.6356 36.9594 86.9687 36.5993 87.4445 36.5873Z" fill="white"/>
<path d="M6.36413 11.1757C5.92399 11.1637 5.54333 10.7556 5.54333 10.3114C5.54333 9.8433 5.92399 9.47119 6.37603 9.47119C6.83996 9.47119 7.2563 9.90332 7.24441 10.3595C7.22062 10.7676 6.78048 11.1877 6.36413 11.1757Z" fill="white"/>
<path d="M10.4206 10.2874C10.4325 10.7555 10.0876 11.1516 9.63552 11.1756C9.1716 11.1996 8.75525 10.7915 8.75525 10.3234C8.75525 9.89124 9.1597 9.47112 9.58794 9.47112C10.04 9.45911 10.4087 9.81922 10.4206 10.2874Z" fill="white"/>
<path d="M67.3411 37.4636C67.3292 37.9077 66.9248 38.2918 66.4846 38.2798C66.0445 38.2678 65.6638 37.8597 65.6638 37.4155C65.6638 36.9354 66.0802 36.5513 66.556 36.5753C67.008 36.6113 67.353 37.0074 67.3411 37.4636Z" fill="white"/>
<path d="M49.3787 37.4516C49.3668 37.8717 48.9385 38.3038 48.5341 38.2918C48.0821 38.2798 47.6657 37.8237 47.6895 37.3796C47.7133 36.9474 48.1296 36.5753 48.5698 36.5873C49.0099 36.6113 49.3906 37.0074 49.3787 37.4516Z" fill="white"/>
<path d="M100.292 37.4995C100.256 37.9316 99.8041 38.3398 99.3996 38.2918C98.9357 38.2437 98.555 37.7876 98.6026 37.3315C98.6502 36.8873 99.0665 36.5512 99.5186 36.5872C99.9706 36.6233 100.327 37.0554 100.292 37.4995Z" fill="white"/>
<path d="M19.4137 37.4516C19.4137 37.8957 19.0211 38.2918 18.581 38.2918C18.1409 38.2918 17.7126 37.8357 17.7364 37.3916C17.7602 36.9594 18.1766 36.5753 18.6167 36.5873C19.0568 36.5993 19.4256 36.9834 19.4137 37.4516Z" fill="white"/>
<path d="M3.17608 29.2651C2.72404 29.2651 2.34338 28.8809 2.34338 28.4248C2.34338 27.9567 2.77163 27.5365 3.21176 27.5606C3.6519 27.5846 4.02066 27.9927 4.00877 28.4368C3.99687 28.917 3.6519 29.2651 3.17608 29.2651Z" fill="white"/>
<path d="M9.57585 27.5606C10.0041 27.5486 10.4204 27.9447 10.4442 28.3768C10.468 28.8089 10.0993 29.2291 9.64723 29.2531C9.1833 29.2771 8.75506 28.869 8.74316 28.4128C8.74316 27.9927 9.13572 27.5726 9.57585 27.5606Z" fill="white"/>
<path d="M9.57585 38.3039C9.1595 38.3039 8.74316 37.8718 8.73126 37.4516C8.71936 37.0315 9.14761 36.6114 9.56395 36.5994C10.0636 36.5874 10.4323 36.9715 10.4085 37.4757C10.3966 37.9318 10.0279 38.3039 9.57585 38.3039Z" fill="white"/>
<path d="M61.3457 31.4257C61.3338 31.8698 60.9293 32.278 60.5011 32.266C60.0491 32.254 59.6327 31.8098 59.6565 31.3537C59.6803 30.9096 60.0848 30.5494 60.5368 30.5614C61.0126 30.5735 61.3576 30.9456 61.3457 31.4257Z" fill="white"/>
<path d="M118.266 34.4267C118.266 34.8829 117.885 35.243 117.421 35.243C116.969 35.243 116.577 34.8588 116.577 34.4147C116.577 33.9946 116.993 33.5505 117.398 33.5385C117.85 33.5264 118.266 33.9586 118.266 34.4267Z" fill="white"/>
<path d="M114.412 38.2918C113.996 38.2798 113.591 37.8597 113.591 37.4275C113.591 36.9594 113.96 36.5873 114.412 36.5873C114.876 36.5753 115.28 36.9954 115.268 37.4636C115.256 37.8837 114.816 38.3038 114.412 38.2918Z" fill="white"/>
<path d="M13.4421 34.4025C13.4421 34.8347 13.0376 35.2548 12.6094 35.2548C12.1336 35.2548 11.7648 34.9187 11.741 34.4506C11.7172 33.9824 12.1455 33.5383 12.5856 33.5503C13.0257 33.5743 13.4421 33.9944 13.4421 34.4025Z" fill="white"/>
<path d="M70.3387 31.4016C70.3387 31.8458 69.958 32.2419 69.5179 32.2659C69.0777 32.2779 68.6376 31.8337 68.6495 31.3896C68.6614 30.9335 69.0539 30.5734 69.5179 30.5854C69.9818 30.5734 70.3387 30.9335 70.3387 31.4016Z" fill="white"/>
<path d="M15.6069 33.5503C16.0232 33.5623 16.4277 33.9824 16.4277 34.4266C16.4277 34.8707 16.0351 35.2548 15.595 35.2668C15.1192 35.2668 14.7266 34.8467 14.7504 34.3786C14.7623 33.9344 15.1787 33.5383 15.6069 33.5503Z" fill="white"/>
<path d="M18.5572 33.5624C18.9973 33.5504 19.4018 33.9225 19.4137 34.3787C19.4375 34.8588 19.1044 35.2309 18.6405 35.2669C18.1765 35.3029 17.7483 34.9068 17.7364 34.4387C17.7245 34.0065 18.129 33.5744 18.5572 33.5624Z" fill="white"/>
<path d="M10.4326 7.29828C10.4326 7.75442 10.052 8.15054 9.61182 8.15054C9.14789 8.15054 8.71965 7.73041 8.74344 7.27427C8.75534 6.84215 9.17168 6.44603 9.61182 6.45803C10.052 6.45803 10.4326 6.84215 10.4326 7.29828Z" fill="white"/>
<path d="M96.4615 38.2918C96.0213 38.3038 95.5812 37.8717 95.6169 37.4036C95.6526 36.9234 95.9262 36.6353 96.402 36.5993C96.8897 36.5633 97.2942 36.9594 97.2823 37.4396C97.2942 37.8717 96.8897 38.2798 96.4615 38.2918Z" fill="white"/>
<path d="M37.3999 34.3905C37.4118 34.8347 37.0312 35.2308 36.5791 35.2548C36.1033 35.2668 35.7464 34.9307 35.7226 34.4506C35.6989 33.9464 36.0676 33.5503 36.5434 33.5503C36.9836 33.5503 37.388 33.9584 37.3999 34.3905Z" fill="white"/>
<path d="M42.5505 33.5503C42.9787 33.5503 43.3713 33.9584 43.3832 34.4025C43.3951 34.8467 43.0025 35.2428 42.5505 35.2548C42.0628 35.2668 41.6821 34.8707 41.694 34.3785C41.7178 33.9344 42.1103 33.5503 42.5505 33.5503Z" fill="white"/>
<path d="M56.6943 34.4025C56.7062 33.9584 57.0869 33.5503 57.5151 33.5503C57.9553 33.5503 58.3835 34.0064 58.3716 34.4506C58.3478 34.8827 57.9196 35.2788 57.5032 35.2668C57.0393 35.2548 56.6824 34.8707 56.6943 34.4025Z" fill="white"/>
<path d="M70.3387 34.3906C70.3506 34.8587 69.9937 35.2308 69.5298 35.2428C69.0778 35.2548 68.6733 34.8947 68.6495 34.4506C68.6257 34.0064 69.054 33.5503 69.506 33.5503C69.9342 33.5503 70.3268 33.9464 70.3387 34.3906Z" fill="white"/>
<path d="M79.3317 37.4276C79.3317 37.8477 78.9034 38.2918 78.499 38.2918C78.047 38.2918 77.6306 37.8597 77.6425 37.4036C77.6544 36.9474 78.0351 36.5753 78.499 36.5873C78.9391 36.5873 79.3317 36.9954 79.3317 37.4276Z" fill="white"/>
<path d="M69.4822 36.5873C69.9342 36.5753 70.3149 36.9474 70.3387 37.4036C70.3625 37.8237 69.958 38.2678 69.5417 38.2918C69.1015 38.3158 68.6495 37.8837 68.6495 37.4276C68.6376 37.0074 69.042 36.5993 69.4822 36.5873Z" fill="white"/>
<path d="M45.5243 38.2918C45.0842 38.2798 44.6917 37.8837 44.6917 37.4396C44.6917 36.9714 45.108 36.5633 45.5719 36.5873C46.0239 36.6113 46.3808 36.9954 46.357 37.4636C46.3451 37.9197 45.9645 38.3038 45.5243 38.2918Z" fill="white"/>
<path d="M85.3154 34.4025C85.3154 34.8707 84.9585 35.2428 84.4946 35.2548C84.0306 35.2668 83.65 34.9067 83.6262 34.4505C83.6143 33.9944 84.0425 33.5383 84.4827 33.5503C84.899 33.5503 85.3154 33.9704 85.3154 34.4025Z" fill="white"/>
<path d="M34.402 37.4516C34.3901 37.9077 33.95 38.3278 33.498 38.3038C33.0935 38.2798 32.6891 37.8237 32.7129 37.3916C32.7366 36.9474 33.1411 36.5753 33.5931 36.5873C34.0452 36.6113 34.4139 36.9954 34.402 37.4516Z" fill="white"/>
<path d="M15.5833 36.5873C16.0235 36.5873 16.416 36.9714 16.4398 37.4155C16.4636 37.8357 16.0592 38.2798 15.6309 38.2918C15.1789 38.3158 14.7506 37.8957 14.7506 37.4275C14.7387 36.9714 15.1194 36.5993 15.5833 36.5873Z" fill="white"/>
<path d="M6.4117 35.315C5.97156 35.327 5.55521 34.9428 5.54332 34.4987C5.53142 34.0426 5.88829 33.6344 6.32843 33.6104C6.78046 33.5744 7.2325 33.9946 7.24439 34.4507C7.25629 34.8588 6.83994 35.291 6.4117 35.315Z" fill="white"/>
<path d="M6.3522 14.1885C5.91207 14.1645 5.53141 13.7684 5.5433 13.3123C5.5552 12.8321 5.97154 12.436 6.44737 12.472C6.87561 12.508 7.26816 12.9521 7.24437 13.3723C7.20869 13.8044 6.76855 14.2125 6.3522 14.1885Z" fill="white"/>
<path d="M9.58802 14.1887C9.14788 14.1887 8.75532 13.7925 8.74343 13.3484C8.73153 12.9043 9.12409 12.4961 9.55233 12.4841C10.0163 12.4721 10.4207 12.8803 10.4088 13.3604C10.4207 13.8045 10.04 14.1767 9.58802 14.1887Z" fill="white"/>
<path d="M9.63557 18.5218C10.0876 18.5338 10.4445 18.9179 10.4326 19.386C10.4207 19.8422 10.0281 20.2263 9.58799 20.2263C9.12406 20.2143 8.73151 19.7822 8.7553 19.314C8.77909 18.8579 9.15975 18.5098 9.63557 18.5218Z" fill="white"/>
<path d="M3.17616 24.5596C3.62819 24.5476 4.00885 24.9077 4.02075 25.3759C4.03264 25.82 3.65198 26.2401 3.22374 26.2521C2.7955 26.2641 2.36726 25.868 2.34346 25.4479C2.31967 24.9917 2.70033 24.5716 3.17616 24.5596Z" fill="white"/>
<path d="M36.5313 30.5614C36.9833 30.5494 37.3759 30.9096 37.3878 31.3657C37.4116 31.8338 37.0071 32.254 36.5313 32.254C36.0793 32.254 35.7105 31.8578 35.6986 31.4017C35.6986 30.9456 36.0555 30.5735 36.5313 30.5614Z" fill="white"/>
<path d="M50.6753 31.4017C50.6634 30.9696 51.0559 30.5614 51.5079 30.5614C51.9481 30.5494 52.3525 30.9335 52.3644 31.3657C52.3763 31.8218 51.9481 32.2659 51.5079 32.2659C51.0916 32.2539 50.6871 31.8338 50.6753 31.4017Z" fill="white"/>
<path d="M81.4967 32.2541C81.0685 32.2661 80.664 31.882 80.6402 31.4378C80.6164 30.9937 80.9971 30.5856 81.4253 30.5616C81.9011 30.5376 82.3175 30.9337 82.3175 31.4018C82.3294 31.81 81.913 32.2421 81.4967 32.2541Z" fill="white"/>
<path d="M97.2942 31.3777C97.3061 31.8098 96.9136 32.2179 96.4734 32.254C96.0333 32.278 95.6051 31.8578 95.6051 31.3777C95.6051 30.9216 95.9857 30.5494 96.4378 30.5494C96.9136 30.5614 97.2942 30.9216 97.2942 31.3777Z" fill="white"/>
<path d="M101.588 31.3898C101.6 30.9456 101.993 30.5615 102.433 30.5615C102.885 30.5615 103.278 30.9456 103.278 31.3898C103.278 31.8699 102.873 32.266 102.397 32.254C101.969 32.23 101.588 31.8339 101.588 31.3898Z" fill="white"/>
<path d="M111.45 30.5614C111.914 30.5735 112.283 30.9456 112.283 31.4017C112.283 31.8338 111.866 32.254 111.45 32.254C111.022 32.266 110.57 31.7978 110.593 31.3537C110.593 30.9096 110.986 30.5494 111.45 30.5614Z" fill="white"/>
<path d="M123.393 32.254C122.953 32.242 122.572 31.8338 122.572 31.3897C122.572 30.9216 122.929 30.5494 123.393 30.5494C123.869 30.5494 124.285 30.9696 124.25 31.4257C124.226 31.8578 123.81 32.266 123.393 32.254Z" fill="white"/>
<path d="M4.03252 31.4256C4.03252 31.8937 3.67565 32.2779 3.22362 32.2899C2.74779 32.3019 2.34334 31.8937 2.35524 31.4136C2.36713 30.9695 2.75969 30.5733 3.19982 30.5853C3.63996 30.5853 4.02062 30.9815 4.03252 31.4256Z" fill="white"/>
<path d="M49.3788 31.3778C49.3906 31.8339 48.9624 32.266 48.5104 32.266C48.1059 32.266 47.6896 31.8219 47.6896 31.3898C47.6896 30.9336 48.0702 30.5615 48.5342 30.5615C48.9862 30.5615 49.3669 30.9216 49.3788 31.3778Z" fill="white"/>
<path d="M30.5837 32.2658C30.1674 32.2778 29.751 31.8817 29.7153 31.4496C29.6797 31.0175 30.0484 30.5973 30.5004 30.5733C30.9763 30.5493 31.4045 30.9334 31.4045 31.3896C31.4045 31.8217 31.012 32.2538 30.5837 32.2658Z" fill="white"/>
<path d="M7.24444 31.4378C7.24444 31.8579 6.8281 32.2901 6.41175 32.3021C5.95972 32.3141 5.53148 31.882 5.55527 31.4138C5.56716 30.9577 5.95972 30.5856 6.41175 30.5976C6.83999 30.5976 7.24444 31.0057 7.24444 31.4378Z" fill="white"/>
<path d="M3.17608 33.5984C3.60432 33.5864 4.00877 33.9825 4.02066 34.4267C4.03256 34.8708 3.6519 35.2909 3.22366 35.3029C2.77163 35.3269 2.34338 34.9068 2.34338 34.4387C2.34338 34.0065 2.74783 33.5984 3.17608 33.5984Z" fill="white"/>
<path d="M53.6728 31.4137C53.6609 30.9816 54.0535 30.5735 54.4936 30.5615C54.9575 30.5495 55.3263 30.8976 55.3501 31.3657C55.3739 31.8458 54.9813 32.266 54.5174 32.266C54.101 32.266 53.6847 31.8338 53.6728 31.4137Z" fill="white"/>
<path d="M27.5741 35.267C27.1221 35.279 26.7533 34.9069 26.7295 34.4387C26.7057 33.9706 27.1102 33.5625 27.5979 33.5745C28.038 33.5865 28.4306 33.9826 28.4187 34.4267C28.4068 34.8709 28.0142 35.255 27.5741 35.267Z" fill="white"/>
<path d="M4.03254 37.4634C4.03254 37.9315 3.67567 38.3036 3.21174 38.3156C2.75971 38.3276 2.33146 37.9075 2.35526 37.4394C2.36715 36.9952 2.7716 36.5991 3.19984 36.6111C3.65188 36.6351 4.03254 37.0192 4.03254 37.4634Z" fill="white"/>
<path d="M5.55526 37.4036C5.57905 36.9594 5.99539 36.5873 6.43553 36.6113C6.85188 36.6353 7.26822 37.0795 7.25633 37.4876C7.24443 37.9317 6.76861 38.3518 6.32847 38.3158C5.87644 38.2798 5.51957 37.8597 5.55526 37.4036Z" fill="white"/>
<path d="M13.4419 37.4515C13.4419 37.8717 13.0136 38.2918 12.5973 38.2918C12.1809 38.3038 11.7646 37.8717 11.7646 37.4515C11.7646 36.9954 12.1334 36.5993 12.5735 36.5873C13.0136 36.5753 13.4419 36.9954 13.4419 37.4515Z" fill="white"/>
<path d="M93.4637 32.2659C93.0355 32.2659 92.631 31.8698 92.631 31.4137C92.6192 30.9215 92.9522 30.5734 93.4281 30.5614C93.9158 30.5494 94.3321 30.9455 94.3202 31.4017C94.2964 31.8338 93.8682 32.2659 93.4637 32.2659Z" fill="white"/>
<path d="M40.3736 37.4275C40.3855 37.8837 40.0049 38.2918 39.5766 38.2918C39.1246 38.3038 38.6964 37.8717 38.7082 37.4155C38.7082 36.9834 39.1127 36.5993 39.5647 36.5873C40.0049 36.5873 40.3617 36.9474 40.3736 37.4275Z" fill="white"/>
<path d="M54.5412 36.5873C55.0051 36.5993 55.362 36.9714 55.3501 37.4396C55.3501 37.9197 54.9338 38.3278 54.4698 38.3038C54.0654 38.2798 53.6491 37.8237 53.6728 37.4036C53.6966 36.9594 54.1011 36.5753 54.5412 36.5873Z" fill="white"/>
<path d="M57.5153 38.2916C57.0514 38.2796 56.6588 37.8595 56.6826 37.3793C56.7064 36.9112 57.0871 36.5631 57.551 36.5871C57.9911 36.5991 58.3718 37.0072 58.3599 37.4514C58.348 37.8835 57.9316 38.3036 57.5153 38.2916Z" fill="white"/>
<path d="M63.5108 38.2918C63.0588 38.2798 62.6424 37.8357 62.6662 37.3916C62.69 36.9474 63.0944 36.5753 63.5346 36.5873C63.9747 36.5993 64.3673 37.0074 64.3554 37.4396C64.3435 37.8717 63.9152 38.3038 63.5108 38.2918Z" fill="white"/>
<path d="M7.24447 19.3741C7.24447 19.7943 6.81623 20.2264 6.39988 20.2264C5.94785 20.2264 5.5315 19.7943 5.55529 19.3261C5.57909 18.858 5.93595 18.5219 6.42367 18.5339C6.87571 18.5459 7.24447 18.93 7.24447 19.3741Z" fill="white"/>
<path d="M75.4777 36.5873C75.9417 36.5873 76.3104 36.9474 76.3223 37.4155C76.3223 37.8957 75.9298 38.3158 75.4658 38.3038C75.0376 38.2918 74.6451 37.8717 74.6451 37.4395C74.6451 36.9834 75.0376 36.5873 75.4777 36.5873Z" fill="white"/>
<path d="M3.21182 20.2264C2.77168 20.2384 2.37913 19.8663 2.35534 19.4101C2.33155 18.93 2.7241 18.5219 3.19992 18.5219C3.65196 18.5219 4.03262 18.906 4.04451 19.3621C4.03262 19.7822 3.64006 20.2144 3.21182 20.2264Z" fill="white"/>
<path d="M81.4611 38.2918C81.0328 38.2798 80.6284 37.8717 80.6284 37.4276C80.6284 36.9714 81.0685 36.5633 81.5206 36.5873C81.9607 36.6113 82.3414 37.0314 82.3057 37.4636C82.2938 37.9197 81.9012 38.2918 81.4611 38.2918Z" fill="white"/>
<path d="M84.4708 36.5873C84.9228 36.5873 85.3035 36.9594 85.3153 37.4155C85.3272 37.8357 84.9228 38.2798 84.5064 38.2918C84.0782 38.3038 83.6143 37.8477 83.6262 37.4155C83.6262 36.9834 84.0306 36.5873 84.4708 36.5873Z" fill="white"/>
<path d="M9.58802 15.4968C10.0638 15.5089 10.3969 15.857 10.4088 16.3371C10.4088 16.8533 10.052 17.2134 9.55234 17.1894C9.1122 17.1773 8.73154 16.7692 8.74344 16.3251C8.76723 15.881 9.15978 15.4848 9.58802 15.4968Z" fill="white"/>
<path d="M105.419 38.2797C104.991 38.2677 104.586 37.8356 104.586 37.4155C104.598 36.9593 105.026 36.5512 105.49 36.5752C105.954 36.5992 106.299 36.9833 106.275 37.4515C106.264 37.9076 105.847 38.3037 105.419 38.2797Z" fill="white"/>
<path d="M112.283 37.4997C112.247 37.9198 111.795 38.3279 111.379 38.2919C110.938 38.2559 110.558 37.8238 110.594 37.3917C110.629 36.9115 111.046 36.5394 111.521 36.5874C111.962 36.6234 112.306 37.0556 112.283 37.4997Z" fill="white"/>
<path d="M45.5127 30.5737C45.9766 30.5617 46.3692 30.9218 46.3811 31.3659C46.393 31.834 45.9766 32.2662 45.5365 32.2662C45.1202 32.2662 44.7157 31.846 44.7038 31.4139C44.68 30.9698 45.0607 30.5857 45.5127 30.5737Z" fill="white"/>
<path d="M118.266 37.3916C118.278 37.8237 117.897 38.2558 117.469 38.2918C117.029 38.3278 116.577 37.8837 116.577 37.4276C116.577 36.9714 116.958 36.5873 117.398 36.5873C117.862 36.5753 118.254 36.9474 118.266 37.3916Z" fill="white"/>
<path d="M100.292 34.3905C100.304 34.8347 99.9351 35.2308 99.4711 35.2428C99.0072 35.2548 98.6265 34.9067 98.5908 34.4506C98.5671 33.9944 98.9715 33.5503 99.4354 33.5503C99.8756 33.5503 100.28 33.9584 100.292 34.3905Z" fill="white"/>
<path d="M91.2987 34.4267C91.2868 34.8828 90.9061 35.2549 90.4541 35.2549C90.014 35.2549 89.6214 34.8468 89.6214 34.4027C89.6333 33.9225 90.0615 33.5024 90.5017 33.5384C90.9418 33.5744 91.3106 33.9825 91.2987 34.4267Z" fill="white"/>
<path d="M101.6 34.4025C101.6 33.9584 101.993 33.5503 102.421 33.5503C102.873 33.5503 103.289 33.9704 103.277 34.4386C103.266 34.8827 102.885 35.2428 102.421 35.2428C101.969 35.2308 101.6 34.8587 101.6 34.4025Z" fill="white"/>
<path d="M63.5344 35.2548C63.0467 35.2668 62.6541 34.8707 62.6541 34.4025C62.6541 33.9704 63.0705 33.5623 63.4987 33.5503C63.9151 33.5503 64.3314 33.9584 64.3552 34.3905C64.379 34.8227 63.9745 35.2428 63.5344 35.2548Z" fill="white"/>
<path d="M127.247 31.3899C127.235 31.846 126.843 32.2541 126.427 32.2541C125.963 32.2541 125.57 31.846 125.582 31.3538C125.594 30.8977 125.975 30.5376 126.438 30.5376C126.879 30.5496 127.247 30.9337 127.247 31.3899Z" fill="white"/>
<path d="M75.5014 32.2541C75.0612 32.2662 74.6568 31.882 74.633 31.4379C74.6092 30.9938 74.978 30.5857 75.43 30.5616C75.9177 30.5376 76.3103 30.9097 76.3222 31.4019C76.346 31.846 75.9534 32.2421 75.5014 32.2541Z" fill="white"/>
<path d="M58.3718 31.3657C58.3837 31.8098 57.9912 32.23 57.5629 32.254C57.099 32.278 56.6708 31.8698 56.6708 31.4017C56.6708 30.9456 57.0514 30.5494 57.5035 30.5494C57.9436 30.5494 58.3599 30.9336 58.3718 31.3657Z" fill="white"/>
<path d="M51.5435 33.5503C51.9718 33.5503 52.3643 33.9584 52.3643 34.4025C52.3643 34.8467 51.9837 35.2428 51.5435 35.2548C51.0796 35.2668 50.6633 34.8467 50.6871 34.3785C50.7109 33.9464 51.1153 33.5503 51.5435 33.5503Z" fill="white"/>
<path d="M61.3218 34.4386C61.3099 34.9188 60.9649 35.2669 60.501 35.2669C60.049 35.2669 59.6445 34.8227 59.6683 34.3666C59.6921 33.9224 60.1085 33.5503 60.5486 33.5743C61.0006 33.5863 61.3337 33.9585 61.3218 34.4386Z" fill="white"/>
<path d="M108.429 36.5873C108.869 36.5873 109.261 36.9714 109.285 37.4035C109.297 37.8357 108.857 38.2798 108.405 38.2798C107.977 38.2798 107.608 37.8717 107.608 37.4035C107.62 36.9234 107.953 36.5873 108.429 36.5873Z" fill="white"/>
<path d="M120.395 36.5873C120.847 36.5753 121.228 36.9354 121.252 37.4036C121.276 37.8597 120.847 38.3038 120.407 38.3038C120.003 38.2918 119.574 37.8597 119.574 37.4396C119.551 37.0075 119.955 36.5993 120.395 36.5873Z" fill="white"/>
<path d="M3.15225 15.4848C3.58049 15.4728 3.98494 15.8569 4.02063 16.301C4.05632 16.7812 3.67566 17.1893 3.18794 17.1893C2.7478 17.1893 2.35524 16.8052 2.35524 16.361C2.34335 15.9289 2.7359 15.4968 3.15225 15.4848Z" fill="white"/>
<path d="M90.4421 38.2918C90.0258 38.2798 89.6094 37.8597 89.6213 37.4275C89.6213 36.9714 90.002 36.5873 90.454 36.5873C90.906 36.5873 91.2986 36.9474 91.3105 37.4035C91.3105 37.8717 90.8941 38.3038 90.4421 38.2918Z" fill="white"/>
<path d="M34.3902 34.3905C34.4021 34.8587 34.0333 35.2428 33.5813 35.2548C33.1054 35.2668 32.6891 34.8587 32.701 34.3905C32.7129 33.9464 33.1173 33.5503 33.5456 33.5503C33.9976 33.5623 34.3902 33.9464 34.3902 34.3905Z" fill="white"/>
<path d="M109.285 31.4499C109.249 31.906 108.785 32.3021 108.333 32.2541C107.893 32.2061 107.572 31.786 107.608 31.3178C107.643 30.8377 108.024 30.5136 108.5 30.5616C108.94 30.5976 109.321 31.0297 109.285 31.4499Z" fill="white"/>
<path d="M105.407 32.2421C104.967 32.2301 104.586 31.834 104.586 31.3899C104.586 30.9217 105.003 30.5376 105.49 30.5616C105.966 30.5856 106.287 30.9457 106.264 31.4379C106.24 31.882 105.859 32.2541 105.407 32.2421Z" fill="white"/>
<path d="M87.4685 35.2549C87.0046 35.2549 86.6478 34.8948 86.6478 34.4266C86.6478 33.9705 87.0165 33.5624 87.4447 33.5624C87.8968 33.5504 88.325 33.9825 88.3012 34.4386C88.2893 34.8708 87.9087 35.2549 87.4685 35.2549Z" fill="white"/>
<path d="M73.3485 31.3897C73.3604 31.7978 72.9321 32.242 72.5158 32.254C72.0637 32.278 71.6236 31.8338 71.6593 31.3777C71.695 30.9095 71.9329 30.5854 72.4325 30.5614C72.9202 30.5494 73.3366 30.9215 73.3485 31.3897Z" fill="white"/>
<path d="M28.4187 31.3776C28.4306 31.7977 28.0261 32.2298 27.5979 32.2658C27.1577 32.3018 26.7295 31.8817 26.7295 31.3896C26.7414 30.8974 26.9912 30.6093 27.4908 30.5733C27.9904 30.5373 28.4068 30.9094 28.4187 31.3776Z" fill="white"/>
<path d="M42.5744 38.2918C42.1461 38.3038 41.7298 37.9197 41.706 37.4876C41.6822 37.0074 42.051 36.5993 42.5387 36.5873C42.9669 36.5753 43.3714 36.9834 43.3833 37.4155C43.407 37.8477 43.0026 38.2798 42.5744 38.2918Z" fill="white"/>
<path d="M124.249 34.4026C124.249 34.8467 123.869 35.2308 123.417 35.2428C122.941 35.2428 122.596 34.9067 122.584 34.4266C122.572 33.9705 122.929 33.5623 123.369 33.5503C123.845 33.5263 124.249 33.9344 124.249 34.4026Z" fill="white"/>
<path d="M86.6356 31.3898C86.6356 30.9096 86.9925 30.5615 87.4683 30.5615C87.9203 30.5615 88.301 30.9336 88.3129 31.3898C88.3248 31.8579 87.8965 32.29 87.4445 32.266C87.0163 32.254 86.6356 31.8339 86.6356 31.3898Z" fill="white"/>
<path d="M39.5292 32.2658C39.1129 32.2658 38.6965 31.8336 38.6965 31.4135C38.6965 30.9454 39.101 30.5613 39.5887 30.5733C40.0526 30.5853 40.3857 30.9574 40.3738 31.4375C40.35 31.8937 39.9813 32.2658 39.5292 32.2658Z" fill="white"/>
<path d="M9.57582 26.264C9.12379 26.252 8.71933 25.8079 8.74313 25.3397C8.76692 24.8956 9.17137 24.5355 9.6234 24.5595C10.1111 24.5835 10.4204 24.9196 10.4085 25.4237C10.4085 25.8799 10.016 26.276 9.57582 26.264Z" fill="white"/>
<path d="M25.3853 37.4035C25.3972 37.8837 25.0642 38.2678 24.6121 38.2918C24.172 38.3158 23.7081 37.8837 23.7081 37.4395C23.7081 36.9954 24.1006 36.5993 24.5408 36.5873C25.0285 36.5873 25.3735 36.9114 25.3853 37.4035Z" fill="white"/>
<path d="M37.388 37.4397C37.3761 37.8838 36.9716 38.2919 36.5553 38.2919C36.0914 38.2919 35.6988 37.8718 35.7107 37.4037C35.7226 36.9475 36.1033 36.5874 36.5672 36.5994C37.0073 36.5994 37.3999 37.0075 37.388 37.4397Z" fill="white"/>
<path d="M6.41175 26.2642C5.97161 26.2762 5.56716 25.8921 5.55526 25.436C5.53147 24.9798 5.88834 24.5837 6.35227 24.5597C6.8162 24.5357 7.26823 24.9438 7.25633 25.4C7.24444 25.8321 6.83999 26.2522 6.41175 26.2642Z" fill="white"/>
<path d="M30.5361 38.2918C30.1078 38.2798 29.7153 37.8477 29.7153 37.4155C29.7153 36.9834 30.1197 36.5753 30.5599 36.5873C31.0357 36.5873 31.4401 37.0074 31.4044 37.4756C31.3688 37.9197 30.9524 38.3158 30.5361 38.2918Z" fill="white"/>
<path d="M10.4444 31.3899C10.4563 31.834 10.0757 32.2421 9.63552 32.2662C9.18349 32.2902 8.75525 31.858 8.75525 31.4019C8.75525 30.9578 9.13591 30.5737 9.59984 30.5737C10.0519 30.5617 10.4206 30.9218 10.4444 31.3899Z" fill="white"/>
<path d="M40.3616 34.4146C40.3616 34.8828 40.0167 35.2549 39.5527 35.2549C39.1007 35.2549 38.7081 34.8828 38.6844 34.4386C38.6606 33.9945 39.0888 33.5504 39.5527 33.5624C40.0048 33.5744 40.3616 33.9465 40.3616 34.4146Z" fill="white"/>
<path d="M4.02066 13.3725C4.00877 13.8167 3.58053 14.2128 3.16418 14.2008C2.73594 14.1888 2.34338 13.7686 2.34338 13.3365C2.34338 12.8804 2.78352 12.4603 3.23555 12.4843C3.66379 12.4963 4.04445 12.9284 4.02066 13.3725Z" fill="white"/>
<path d="M93.44 36.5873C93.8801 36.5873 94.3084 36.9714 94.3203 37.3915C94.3322 37.8237 93.8801 38.2918 93.4519 38.2918C93.0237 38.2918 92.643 37.8837 92.6311 37.4395C92.6311 36.9594 92.9761 36.5873 93.44 36.5873Z" fill="white"/>
<path d="M82.3175 34.4506C82.3056 34.8947 81.9012 35.2548 81.4491 35.2428C80.9971 35.2308 80.6164 34.8467 80.6283 34.3906C80.6402 33.9464 81.0447 33.5503 81.4729 33.5503C81.925 33.5503 82.3413 33.9944 82.3175 34.4506Z" fill="white"/>
<path d="M3.21181 21.5109C3.64005 21.5229 4.03261 21.943 4.02071 22.3872C4.00882 22.8673 3.61626 23.2394 3.11664 23.2034C2.67651 23.1794 2.30774 22.7593 2.33153 22.3271C2.37912 21.883 2.78357 21.4989 3.21181 21.5109Z" fill="white"/>
<path d="M28.4187 37.4634C28.4068 37.8836 27.9666 38.3157 27.5622 38.3037C27.1339 38.2917 26.7295 37.8836 26.7295 37.4514C26.7295 36.9713 27.122 36.5752 27.6098 36.5992C28.0499 36.6112 28.4187 37.0073 28.4187 37.4634Z" fill="white"/>
<path d="M61.3339 37.4276C61.3339 37.9077 60.977 38.2798 60.5369 38.2798C60.073 38.2798 59.6685 37.8597 59.6804 37.3916C59.6923 36.9474 60.0849 36.5753 60.5369 36.5873C61.0008 36.5993 61.3339 36.9474 61.3339 37.4276Z" fill="white"/>
<path d="M6.36418 23.2152C5.90025 23.2032 5.54339 22.831 5.55528 22.3629C5.55528 21.9068 6.00731 21.4746 6.44745 21.5106C6.8519 21.5347 7.25635 22.0028 7.24446 22.4109C7.23256 22.831 6.79242 23.2272 6.36418 23.2152Z" fill="white"/>
<path d="M109.285 34.4267C109.261 34.9189 108.88 35.255 108.369 35.219C107.881 35.195 107.584 34.8469 107.619 34.3427C107.655 33.8746 108.036 33.5265 108.488 33.5505C108.916 33.5865 109.297 33.9946 109.285 34.4267Z" fill="white"/>
<path d="M10.4205 22.3871C10.4205 22.8553 10.0636 23.2154 9.59972 23.2034C9.14769 23.2034 8.76703 22.8313 8.76703 22.3871C8.76703 21.919 9.17148 21.4989 9.62351 21.5109C10.0518 21.5349 10.4205 21.931 10.4205 22.3871Z" fill="white"/>
<path d="M43.3832 31.4257C43.3713 31.8699 42.9669 32.266 42.5386 32.266C42.0747 32.266 41.6821 31.8339 41.7059 31.3537C41.7297 30.8856 42.0985 30.5495 42.5743 30.5615C43.0144 30.5735 43.3951 30.9816 43.3832 31.4257Z" fill="white"/>
<path d="M103.29 37.4035C103.301 37.8357 102.909 38.2558 102.481 38.2798C102.029 38.3038 101.612 37.8957 101.612 37.4156C101.612 36.9594 101.981 36.5873 102.445 36.5873C102.873 36.5753 103.278 36.9714 103.29 37.4035Z" fill="white"/>
<path d="M24.5883 30.5736C25.076 30.5857 25.3853 30.9218 25.3853 31.4259C25.3734 31.894 24.9927 32.2782 24.5645 32.2782C24.1124 32.2662 23.6842 31.822 23.708 31.3779C23.7318 30.9338 24.1481 30.5616 24.5883 30.5736Z" fill="white"/>
<path d="M46.369 34.4026C46.3809 34.8708 46.0359 35.2309 45.5601 35.2429C45.0962 35.2549 44.7274 34.9188 44.6917 34.4627C44.656 34.0185 45.0843 33.5744 45.5244 33.5624C45.9527 33.5504 46.3571 33.9585 46.369 34.4026Z" fill="white"/>
<path d="M89.6213 31.3897C89.6094 30.9456 90.002 30.5494 90.454 30.5494C90.9298 30.5494 91.2748 30.8855 91.2867 31.3657C91.2986 31.8218 90.9298 32.242 90.5016 32.254C90.0615 32.29 89.6213 31.8578 89.6213 31.3897Z" fill="white"/>
<path d="M20.7222 31.4137C20.7103 30.9696 21.091 30.5735 21.543 30.5615C22.0069 30.5495 22.3876 30.8976 22.4114 31.3657C22.4352 31.8218 22.0188 32.278 21.5668 32.278C21.1504 32.278 20.7341 31.8459 20.7222 31.4137Z" fill="white"/>
<path d="M67.3529 34.4025C67.3648 34.8346 66.9841 35.2307 66.5321 35.2547C66.0682 35.2787 65.6518 34.8706 65.6637 34.4025C65.6756 33.9823 66.092 33.5622 66.5083 33.5742C66.9366 33.5742 67.341 33.9703 67.3529 34.4025Z" fill="white"/>
<path d="M49.3788 34.4027C49.3906 34.8589 49.01 35.255 48.5698 35.267C48.1059 35.279 47.6896 34.8709 47.6896 34.4027C47.6896 33.9586 48.0821 33.5745 48.5342 33.5745C48.9624 33.5625 49.3669 33.9586 49.3788 34.4027Z" fill="white"/>
<path d="M30.5598 35.255C30.0959 35.255 29.7271 34.8829 29.7271 34.4267C29.7271 33.9586 30.1316 33.5625 30.6074 33.5745C31.0356 33.5865 31.4163 34.0066 31.4163 34.4387C31.3925 34.8709 30.9999 35.255 30.5598 35.255Z" fill="white"/>
<path d="M72.4798 36.5873C72.9318 36.5873 73.3244 36.9594 73.3363 37.4035C73.3482 37.8597 72.9318 38.2918 72.4798 38.2918C72.0278 38.2918 71.6828 37.9077 71.6828 37.4395C71.6709 36.9474 72.0159 36.5873 72.4798 36.5873Z" fill="white"/>
<path d="M73.3246 34.3907C73.3365 34.8349 72.9678 35.243 72.5276 35.255C72.0637 35.267 71.695 34.9309 71.6712 34.4628C71.6474 33.9706 72.0042 33.5745 72.492 33.5625C72.9321 33.5625 73.3127 33.9346 73.3246 34.3907Z" fill="white"/>
</g>
<defs>
<clipPath id="clip0">
<rect width="133.112" height="40.6922" fill="white" transform="translate(0 0.00012207)"/>
</clipPath>
</defs>
</svg>
